<mxfile host="app.diagrams.net" modified="2021-03-18T12:18:45.501Z" agent="5.0 (Macintosh; Intel Mac OS X 11_2_2) AppleWebKit/537.36 (KHTML, like Gecko) Chrome/89.0.4389.82 Safari/537.36" etag="SPryhmSuT_qL_R13UKzy" version="14.4.9" type="github">
  <diagram id="ax2NRdwVXsjjNOLEZb41" name="第 1 页">
    <mxGraphModel dx="1523" dy="763" grid="0" gridSize="10" guides="1" tooltips="1" connect="1" arrows="1" fold="1" page="1" pageScale="1" pageWidth="850" pageHeight="1100" math="0" shadow="0">
      <root>
        <mxCell id="0" />
        <mxCell id="1" parent="0" />
        <mxCell id="idzET8xzcsBHdd0YeHyb-2" value="介绍页面" style="rounded=1;whiteSpace=wrap;html=1;fillColor=#f5f5f5;strokeColor=#666666;fontColor=#333333;dashed=1;shadow=1;fontSize=13;" vertex="1" parent="1">
          <mxGeometry x="270" y="270" width="110" height="40" as="geometry" />
        </mxCell>
        <mxCell id="idzET8xzcsBHdd0YeHyb-5" value="" style="endArrow=none;dashed=1;html=1;dashPattern=1 3;strokeWidth=2;shadow=0;sketch=0;fontSize=13;" edge="1" parent="1">
          <mxGeometry width="50" height="50" relative="1" as="geometry">
            <mxPoint x="400" y="320" as="sourcePoint" />
            <mxPoint x="400" y="100" as="targetPoint" />
          </mxGeometry>
        </mxCell>
        <mxCell id="idzET8xzcsBHdd0YeHyb-6" value="前端页面可配置" style="text;html=1;strokeColor=#d79b00;align=center;verticalAlign=middle;whiteSpace=wrap;rounded=0;dashed=1;shadow=1;sketch=0;fontSize=13;" vertex="1" parent="1">
          <mxGeometry x="220" y="90" width="100" height="30" as="geometry" />
        </mxCell>
        <mxCell id="idzET8xzcsBHdd0YeHyb-7" value="后台任务可配置" style="text;html=1;strokeColor=#6c8ebf;align=center;verticalAlign=middle;whiteSpace=wrap;rounded=0;dashed=1;shadow=1;sketch=0;fontSize=13;" vertex="1" parent="1">
          <mxGeometry x="480" y="90" width="100" height="30" as="geometry" />
        </mxCell>
        <mxCell id="idzET8xzcsBHdd0YeHyb-9" value="榜单页面" style="rounded=1;whiteSpace=wrap;html=1;fillColor=#fff2cc;strokeColor=#d6b656;shadow=1;fontSize=13;" vertex="1" parent="1">
          <mxGeometry x="270" y="150" width="110" height="40" as="geometry" />
        </mxCell>
        <mxCell id="idzET8xzcsBHdd0YeHyb-10" value="任务页面" style="rounded=1;whiteSpace=wrap;html=1;fillColor=#fff2cc;strokeColor=#d6b656;shadow=1;fontSize=13;" vertex="1" parent="1">
          <mxGeometry x="150" y="150" width="110" height="40" as="geometry" />
        </mxCell>
        <mxCell id="idzET8xzcsBHdd0YeHyb-11" value="分享关注页面" style="rounded=1;whiteSpace=wrap;html=1;fillColor=#fff2cc;strokeColor=#d6b656;shadow=1;fontSize=13;" vertex="1" parent="1">
          <mxGeometry x="150" y="210" width="110" height="40" as="geometry" />
        </mxCell>
        <mxCell id="idzET8xzcsBHdd0YeHyb-12" value="积分扣减模块" style="rounded=1;whiteSpace=wrap;html=1;fillColor=#fff2cc;strokeColor=#d6b656;shadow=1;fontSize=13;" vertex="1" parent="1">
          <mxGeometry x="270" y="210" width="110" height="40" as="geometry" />
        </mxCell>
        <mxCell id="idzET8xzcsBHdd0YeHyb-13" value="商品兑换页面" style="rounded=1;whiteSpace=wrap;html=1;fontColor=#333333;sketch=0;shadow=1;glass=0;fillStyle=hachure;dashed=1;fillColor=#f5f5f5;strokeColor=#666666;fontSize=13;" vertex="1" parent="1">
          <mxGeometry x="150" y="270" width="110" height="40" as="geometry" />
        </mxCell>
        <mxCell id="idzET8xzcsBHdd0YeHyb-14" value="视频互动任务" style="rounded=1;whiteSpace=wrap;html=1;fillColor=#dae8fc;strokeColor=#6c8ebf;shadow=1;fontSize=13;" vertex="1" parent="1">
          <mxGeometry x="419" y="150" width="110" height="40" as="geometry" />
        </mxCell>
        <mxCell id="idzET8xzcsBHdd0YeHyb-15" value="Feed互动任务" style="rounded=1;whiteSpace=wrap;html=1;dashed=1;fillColor=#f5f5f5;strokeColor=#666666;fontColor=#333333;shadow=1;fontSize=13;" vertex="1" parent="1">
          <mxGeometry x="540" y="270" width="110" height="40" as="geometry" />
        </mxCell>
        <mxCell id="idzET8xzcsBHdd0YeHyb-16" value="发布视频任务" style="rounded=1;whiteSpace=wrap;html=1;fillColor=#dae8fc;strokeColor=#6c8ebf;shadow=1;fontSize=13;" vertex="1" parent="1">
          <mxGeometry x="419" y="210" width="110" height="40" as="geometry" />
        </mxCell>
        <mxCell id="idzET8xzcsBHdd0YeHyb-17" value="发布Feed任务" style="rounded=1;whiteSpace=wrap;html=1;fillColor=#dae8fc;strokeColor=#6c8ebf;shadow=1;fontSize=13;" vertex="1" parent="1">
          <mxGeometry x="419" y="270" width="110" height="40" as="geometry" />
        </mxCell>
        <mxCell id="idzET8xzcsBHdd0YeHyb-18" value="关注用户/标签任务" style="rounded=1;whiteSpace=wrap;html=1;fillColor=#dae8fc;strokeColor=#6c8ebf;shadow=1;fontSize=13;" vertex="1" parent="1">
          <mxGeometry x="540" y="150" width="110" height="40" as="geometry" />
        </mxCell>
        <mxCell id="idzET8xzcsBHdd0YeHyb-20" value="分享大v任务" style="rounded=1;whiteSpace=wrap;html=1;fillColor=#dae8fc;strokeColor=#6c8ebf;shadow=1;fontSize=13;" vertex="1" parent="1">
          <mxGeometry x="540" y="210" width="110" height="40" as="geometry" />
        </mxCell>
      </root>
    </mxGraphModel>
  </diagram>
</mxfile>
